<svg version="1.1" xmlns="http://www.w3.org/2000/svg" style="display: block;" viewBox="0 0 2048 2048" width="1024" height="1024" preserveAspectRatio="xMidYMid meet">
<defs>
	<linearGradient id="Gradient1" gradientUnits="userSpaceOnUse" x1="1713.34" y1="1553.85" x2="1728.86" y2="1558.04">
		<stop class="stop0" offset="0" stop-opacity="1" stop-color="rgb(38,44,64)"/>
		<stop class="stop1" offset="1" stop-opacity="1" stop-color="rgb(5,34,79)"/>
	</linearGradient>
	<linearGradient id="Gradient2" gradientUnits="userSpaceOnUse" x1="786.563" y1="1553.38" x2="803.171" y2="1558.21">
		<stop class="stop0" offset="0" stop-opacity="1" stop-color="rgb(38,48,68)"/>
		<stop class="stop1" offset="1" stop-opacity="1" stop-color="rgb(6,32,74)"/>
	</linearGradient>
	<linearGradient id="Gradient3" gradientUnits="userSpaceOnUse" x1="399.857" y1="1550.85" x2="365.474" y2="1565.39">
		<stop class="stop0" offset="0" stop-opacity="1" stop-color="rgb(37,47,66)"/>
		<stop class="stop1" offset="1" stop-opacity="1" stop-color="rgb(7,34,77)"/>
	</linearGradient>
	<linearGradient id="Gradient4" gradientUnits="userSpaceOnUse" x1="1004.94" y1="1555.02" x2="974.571" y2="1558.49">
		<stop class="stop0" offset="0" stop-opacity="1" stop-color="rgb(45,52,66)"/>
		<stop class="stop1" offset="1" stop-opacity="1" stop-color="rgb(5,33,75)"/>
	</linearGradient>
</defs>
<path transform="translate(0,0)" fill="white" d="M 0 0 L 2048 0 L 2048 2048 L 0 2048 L 0 0 z"/>
<path transform="translate(0,0)" fill="rgb(205,169,79)" d="M 1021.72 493.948 C 1032.56 494.824 1042.28 501.22 1040.65 513.445 C 1039.35 523.25 1034.71 526.312 1027.25 531.699 C 1049.79 532.537 1071.5 530.736 1094.02 529.659 C 1134.99 527.7 1176.1 525.273 1216.93 521.339 C 1218.97 521.143 1221.9 507.632 1228.35 506.213 C 1234.66 504.826 1241.35 506.677 1243.43 513.603 C 1244.86 520.153 1242.86 523.453 1239.48 529.079 L 1288.21 640.222 C 1298.53 664.024 1309.39 690.657 1320.69 713.878 C 1326.17 713.865 1331.02 713.424 1336.46 712.972 C 1333.35 720.413 1330.22 726.601 1326.41 733.711 C 1289.15 803.209 1188.07 809.82 1142.53 745.256 C 1135.15 734.803 1130.99 725.469 1125.95 713.458 C 1130.95 713.619 1136.17 713.525 1141.18 713.512 C 1148.72 699.23 1159.35 673.422 1166.26 657.959 C 1183.89 618.453 1201.22 578.811 1218.24 539.038 C 1186.07 543.598 1153.88 548.645 1121.91 554.418 C 1096.15 559.069 1058.44 562.881 1043.38 586.924 C 1045.57 637.225 1048.59 687.488 1052.43 737.69 C 1055.23 775.539 1052.59 826.709 1085.24 852.035 C 1109.41 870.781 1139.96 874.175 1169.56 875.315 L 1169.66 891.974 L 1024.5 891.961 L 878.02 892.074 L 878.017 875.299 C 996.629 871.244 989.254 817.198 996.275 719.879 L 1001.49 642.047 C 1002.56 624.811 1004.12 602.723 1003.66 585.704 C 1003.28 585.115 1002.89 584.533 1002.49 583.959 C 986.656 561.569 936.81 556.454 911.436 552.142 L 828.622 538.32 C 836.788 558.987 847.111 581.461 856.056 601.984 C 872.214 639.366 888.574 676.66 905.136 713.865 C 910.126 713.858 915.575 713.484 920.596 713.243 L 920.137 714.51 C 886.189 806.391 768.094 817.103 718.744 732.24 C 715.246 726.226 712.515 719.555 709.738 713.157 C 715.971 713.694 719.759 713.574 725.984 713.374 C 751.735 652.702 780.518 589.742 807.205 529.284 C 803.205 523.539 799.177 513.669 805.375 509.28 C 822.786 496.948 825.412 516.497 829.238 521.007 C 834.661 522.716 872.208 524.716 880.494 525.26 L 955.367 529.948 C 975.769 531.166 998.605 533.029 1018.83 530.986 C 999.702 519.722 1000.01 500.301 1021.72 493.948 z"/>
<path transform="translate(0,0)" fill="white" d="M 815.278 551.681 C 818.163 555.17 830.649 586.26 833.472 592.614 C 851.687 632.672 869.551 672.888 887.062 713.259 L 813.607 713.352 C 790.214 713.199 766.82 713.277 743.428 713.588 L 815.278 551.681 z"/>
<path transform="translate(0,0)" fill="white" d="M 1230.36 552.554 C 1234.07 555.607 1295.23 695.301 1303.12 713.203 L 1232.58 713.192 L 1159.53 713.426 C 1165.84 696.558 1178.33 670.97 1186.1 653.587 L 1230.36 552.554 z"/>
<path transform="translate(0,0)" fill="rgb(40,52,71)" d="M 502.77 983.302 C 548.227 977.721 589.551 1010.17 594.904 1055.66 C 600.257 1101.14 567.597 1142.3 522.087 1147.43 C 476.898 1152.52 436.09 1120.14 430.775 1074.98 C 425.46 1029.81 457.635 988.843 502.77 983.302 z"/>
<path transform="translate(0,0)" fill="white" d="M 506.564 994.305 C 565.771 991.727 572.622 1078.47 551.093 1117.29 C 545.018 1128.25 534.515 1133.43 522.742 1136.08 C 486.704 1137.55 469.148 1114.28 465 1081.54 C 460.559 1046.49 462.764 1000.06 506.564 994.305 z"/>
<path transform="translate(0,0)" fill="rgb(205,169,79)" d="M 1022.9 286.465 C 1025.05 288.241 1047.2 353.662 1050.77 362.018 C 1079.13 362.968 1107.5 363.465 1135.88 363.511 L 1135.84 364.686 C 1113.91 378.268 1086.05 399.508 1064.21 414.871 C 1073.51 437.493 1083.5 468.514 1091.41 492.131 L 1024.58 444.375 C 1008.99 454.332 970.602 481.302 956.39 492.682 C 962.871 468.971 973.266 438.284 981.968 415.105 C 965.397 401.752 926.802 373.941 909.328 362.818 C 916.941 364.296 933.25 363.272 941.806 363.114 L 997.071 362.124 C 1005.23 338.86 1016 309.744 1022.9 286.465 z"/>
<path transform="translate(0,0)" fill="rgb(40,52,71)" d="M 243.875 986.136 C 258.886 986.622 273.906 986.765 288.924 986.565 L 379.313 1103.14 C 378.723 1072.19 379.604 1039.95 377.152 1008.94 C 376.048 994.991 365.76 997.688 358.046 991.88 C 356.804 988.686 356.721 990.204 357.521 987.246 C 360.137 986.213 401.646 986.41 406.798 986.69 C 408.897 989.467 408.475 987.967 408.31 991.281 C 402.066 998.315 392.366 992.708 392.099 1010 C 391.889 1023.67 392.031 1037.75 392.03 1051.44 L 392.036 1146.02 L 376.906 1146.17 C 353.573 1117.43 331.781 1086.69 308.472 1057.84 C 297.523 1044.29 285.942 1029.62 275.863 1015.46 C 276 1050.27 275.886 1090.42 279.635 1125.38 C 280.8 1136.24 299.309 1132.31 300.012 1142.36 C 295.032 1144.67 247.13 1146.63 245.554 1140.29 C 246.868 1136.97 246.645 1137.1 249.552 1135.09 C 251.631 1134.8 254.15 1134.63 256.119 1133.93 C 258.58 1133.05 259.885 1130.62 260.711 1128.28 C 264.789 1116.75 265.615 1008.53 261.112 1001.07 C 259.275 998.021 256.504 997.115 253.31 996.16 C 250.547 995.335 248.079 994.468 245.448 993.292 C 243.137 990.109 243.887 990.954 243.875 986.136 z"/>
<path transform="translate(0,0)" fill="rgb(40,52,71)" d="M 832.794 983.24 L 844.544 982.714 C 853.203 1003.38 893.606 1122.03 900.847 1130.71 C 904.307 1134.86 910.637 1133.64 915.148 1137.45 C 915.667 1140.67 915.82 1140.51 914.811 1143.55 C 914.374 1143.62 912.158 1143.99 911.811 1143.99 C 892.504 1144.1 872.919 1144.26 853.637 1143.69 C 852.811 1143.03 851.985 1142.37 851.16 1141.7 L 851.016 1139.76 C 854.788 1135.42 861.21 1135.43 867.069 1130.55 C 868.533 1124.47 856.272 1095.73 853.334 1088.04 L 841.25 1088.01 L 801.659 1088.09 C 798.215 1097.92 786.564 1123.11 793.047 1132.67 C 796.108 1137.19 802.272 1134.61 805.91 1137.72 C 806.616 1141.03 806.907 1139.56 805.198 1142.31 C 799.772 1144.98 757.288 1145.21 754.639 1142.06 C 754.54 1137.92 753.821 1139.49 755.931 1136.84 C 775.705 1133.45 782.343 1102.26 788.657 1085.14 C 797.679 1060.82 806.562 1036.45 815.305 1012.04 C 818.112 1004.09 821.379 993.762 825.208 986.104 C 826.394 983.733 829.871 983.783 832.794 983.24 z"/>
<path transform="translate(0,0)" fill="white" d="M 827.405 1013.64 C 830.801 1016.88 847.279 1068.62 850.045 1076.95 L 830.957 1077.02 L 805.348 1076.94 C 812.439 1055.75 819.792 1034.65 827.405 1013.64 z"/>
<path transform="translate(0,0)" fill="rgb(40,52,71)" d="M 1562.98 983.325 L 1573.83 982.604 C 1589.95 1022.06 1603.11 1063.42 1618.69 1103.14 C 1622.72 1113.43 1625.59 1124.25 1632.09 1133.29 C 1638.85 1135.71 1641.66 1133.77 1646.26 1140 L 1645.88 1141.69 C 1638.6 1146.03 1595.27 1143.57 1584.05 1143.71 C 1582.5 1143.73 1582.43 1142.74 1581.32 1141.03 C 1582.09 1135.03 1590.73 1135.79 1597 1130.06 C 1598.02 1124.56 1585.95 1095.65 1583.1 1088.05 L 1569.5 1088.02 L 1531.17 1088.04 C 1527.42 1099.06 1516.99 1122.73 1522.62 1132.77 C 1525.63 1135.66 1530.22 1135.74 1534.53 1136.42 C 1536.71 1138.34 1535.82 1137.19 1536.61 1140.38 C 1532.12 1146.84 1516.23 1143.58 1508.96 1143.86 C 1503.95 1144.05 1488.54 1144.99 1484.68 1142.33 C 1485.4 1134.82 1499.49 1131.68 1502.56 1125.58 C 1509.33 1112.09 1514.49 1095.73 1519.6 1081.58 L 1545.61 1009.95 C 1548.16 1002.84 1551.67 991.805 1555.45 985.243 C 1556.4 983.601 1560.3 983.697 1562.98 983.325 z"/>
<path transform="translate(0,0)" fill="white" d="M 1556.51 1014.5 C 1560.02 1017.37 1576.84 1068.5 1580.09 1076.99 L 1559.5 1077.01 L 1535.3 1076.92 C 1541.34 1056.34 1549.29 1034.78 1556.51 1014.5 z"/>
<path transform="translate(0,0)" fill="rgb(40,52,71)" d="M 1387.8 982.414 C 1410.78 981.164 1423.55 984.301 1446.02 988.67 C 1446.6 998.508 1447.8 1018.66 1446.81 1028.01 C 1444.66 1030.24 1445.82 1029.27 1442.32 1030.22 C 1435.04 1027.41 1436.94 1017.4 1432.46 1011.17 C 1406.01 974.363 1346.2 995.272 1338.65 1037.55 C 1331.71 1076.47 1343.11 1124.36 1385.89 1134.8 C 1395.18 1137.07 1411.13 1136.8 1418.98 1131.72 C 1421.39 1126.15 1421.67 1114.71 1421.59 1108.53 C 1421.42 1093.98 1421.72 1084.38 1405.52 1082.68 L 1404.02 1082.53 C 1401.69 1082.45 1402.61 1082.62 1400.44 1081.31 C 1399.42 1077.75 1399.21 1079.34 1400.48 1076.35 C 1402.95 1074.61 1460.64 1071.46 1462.04 1079.84 C 1459.23 1083.37 1451.48 1083.5 1450.68 1085.64 C 1445.8 1098.7 1448.05 1121.91 1447.6 1136.06 C 1392.79 1162.75 1313.35 1146.63 1306.16 1076.22 C 1300.68 1022.63 1335.51 987.363 1387.8 982.414 z"/>
<path transform="translate(0,0)" fill="rgb(40,52,71)" d="M 1150.07 986.205 C 1184.71 987.857 1228.63 986.52 1264.05 986.355 C 1264.84 994.341 1269.65 1019.44 1262.43 1022.88 C 1253.92 1020.42 1259.02 1012.45 1251.31 1004.66 C 1240.36 993.599 1211.03 996.049 1195.99 996.135 L 1196.04 1058.2 C 1207.5 1058.52 1221.49 1059.45 1232.71 1057.63 C 1243.81 1055.83 1240.72 1049.96 1245.51 1042.62 C 1248.62 1041.95 1248.39 1041.98 1251.47 1042.85 C 1252.25 1048.7 1252.71 1083.78 1251.24 1088.49 L 1248.39 1089.63 C 1241 1088.21 1244.28 1078.15 1239.63 1072.95 C 1233.91 1066.57 1205.56 1068.91 1196.06 1069.04 L 1196.01 1083.72 C 1195.98 1094.46 1194.63 1120.95 1198.23 1129.41 C 1202.84 1133.85 1219.42 1131.84 1225.82 1132.15 C 1242.51 1132.96 1258.89 1128.08 1264.9 1110.91 C 1266.89 1105.24 1266.47 1102.67 1271.47 1099.15 L 1273.32 1099.55 C 1277.69 1106 1271.36 1135.21 1269.94 1144 L 1194.19 1144.04 C 1181.18 1144.04 1164.03 1144.53 1151.35 1143.47 C 1149.13 1140.75 1149.46 1142.22 1149.59 1139.16 C 1152.36 1136.14 1159.48 1134.51 1164.2 1132.16 C 1167.46 1128.12 1168.57 1118.34 1168 1113.56 C 1165.85 1095.6 1171.84 1008.9 1164.71 997.962 C 1161.09 994.986 1156.5 994.931 1151.84 993.412 C 1149.29 990.688 1150.15 991.205 1150.07 986.205 z"/>
<path transform="translate(0,0)" fill="rgb(40,52,71)" d="M 603.436 986.066 C 623.306 986.801 643.062 986.155 662.868 986.885 C 663.553 987.423 664.238 987.962 664.923 988.5 C 666.284 995.811 658.406 989.959 653.592 998.882 C 652.205 1001.45 652.413 1006.7 653.46 1009.31 C 666.846 1042.58 678.568 1076.68 692.07 1109.89 C 703.666 1082.15 714.459 1051.29 725.497 1023.75 C 739.778 988.123 713.869 999.995 714.71 987.532 C 716.971 986.387 760.655 985.985 764.763 986.611 C 766.646 989.296 765.997 989.093 766.111 993.064 C 759.61 995.44 753.835 997.732 750.191 1004.09 C 741.273 1019.67 734.846 1037.25 727.939 1053.88 L 689.057 1147.57 L 677.734 1147.2 C 658.143 1099.82 640.455 1050.86 619.893 1003.86 C 618.652 1001.02 610.932 995.728 608.094 994.541 C 602.521 992.21 603.482 991.32 603.436 986.066 z"/>
<path transform="translate(0,0)" fill="rgb(40,52,71)" d="M 1006.04 994.105 C 1003.34 994.127 1003.22 994.274 1000.7 993.444 C 998.852 991.087 998.402 991.074 998.191 988.206 L 999.612 986.974 C 1005.06 986.174 1059.39 986.102 1064.32 987.179 L 1066.02 989.984 L 1064.27 993.24 C 1048.77 997.541 1043.81 995.87 1045.9 1016.01 C 1048.73 1043.26 1041.05 1106.79 1048.45 1130.17 C 1055.42 1135.11 1101.09 1133.99 1104.63 1120.86 C 1106.19 1115.07 1113.5 1101.12 1117.58 1099.52 L 1121.04 1100.32 C 1121.35 1100.91 1121.66 1101.49 1121.96 1102.07 C 1119.06 1113.57 1117.97 1133.44 1115.59 1143.99 L 1042.6 1144.04 C 1029.71 1144.04 1012.94 1144.51 1000.35 1143.48 C 998.926 1140.77 999.54 1141.96 999.791 1138.14 C 1004.96 1134.99 1016.33 1133.59 1016.73 1125.8 C 1018.7 1087.91 1017.73 1049.66 1017.67 1011.71 C 1017.65 1001.84 1015.35 996.909 1006.04 994.105 z"/>
<path transform="translate(0,0)" fill="rgb(32,38,54)" d="M 1006.04 994.105 C 1003.34 994.127 1003.22 994.274 1000.7 993.444 C 998.852 991.087 998.402 991.074 998.191 988.206 L 999.612 986.974 C 1005.06 986.174 1059.39 986.102 1064.32 987.179 L 1066.02 989.984 C 1057.16 986.162 1036.96 989.552 1026.86 989.743 C 1023 989.816 1005.27 989.929 1002.65 990.789 C 1005.09 994.35 1006.67 988.473 1006.04 994.105 z"/>
<path transform="translate(0,0)" fill="rgb(40,52,71)" d="M 1670.02 986.173 C 1677.48 986.383 1733.19 986.007 1735.86 987.758 C 1737.35 996.949 1715.62 991.758 1716.31 1008.16 C 1717.94 1047.29 1716.25 1086.87 1717.42 1125.92 C 1717.73 1136.26 1757.01 1131.88 1763.53 1130.1 C 1779.36 1125.4 1779.2 1112.31 1784.98 1100.99 C 1788.22 1098.61 1787.26 1098.53 1790.46 1098.61 C 1794.02 1102.41 1792.79 1106.33 1791.8 1110.89 C 1790.92 1120.12 1788.73 1135.16 1786.76 1143.95 L 1714.43 1144.06 C 1702.66 1144.07 1683.41 1144.64 1672.19 1143.46 C 1670.21 1140.94 1670.68 1142.32 1670.6 1139.23 C 1672.83 1136.41 1676.04 1135.89 1679.26 1134.65 C 1683.01 1133.21 1686.08 1132.04 1687.54 1127.96 C 1690.69 1119.19 1689.99 1004.86 1686.33 999.411 C 1684.52 996.712 1682.47 996.056 1679.45 995.451 C 1676.81 994.924 1674.37 994.282 1671.82 993.437 C 1669.24 990.676 1670.11 991.238 1670.02 986.173 z"/>
<path transform="translate(0,0)" fill="rgb(40,52,71)" d="M 645.524 1250.23 C 685.379 1249.03 701.007 1279.13 683.815 1314.95 C 678.724 1325.55 664.51 1331.29 653.246 1333.61 C 595.715 1339.31 592.205 1259.17 645.524 1250.23 z"/>
<path transform="translate(0,0)" fill="white" d="M 646.654 1258.14 C 665.046 1260.48 668.972 1278.42 669.055 1294.13 C 669.13 1308.27 668.004 1319.8 653.956 1325.79 C 634.518 1323.84 630.661 1306.73 629.648 1289.92 C 628.769 1275.34 630.989 1262.14 646.654 1258.14 z"/>
<path transform="translate(0,0)" fill="rgb(40,52,71)" d="M 1200.53 1251.24 C 1251.47 1246.76 1230.39 1284.54 1236.29 1317.61 C 1237.43 1323.95 1243.73 1318.58 1247.48 1320.19 C 1247.61 1332.1 1234.31 1335.13 1224.98 1332.23 C 1219.57 1330.54 1217.92 1326.62 1215.51 1322.02 C 1202.61 1333.23 1191.17 1338.39 1175.48 1329.13 C 1169.05 1322.08 1165.23 1312.05 1170.72 1303.29 C 1180.18 1288.2 1200.24 1284.42 1216.27 1280.45 C 1216.07 1276.52 1215.68 1270.32 1214.37 1266.76 C 1211.47 1258.9 1199.11 1257.99 1192.77 1261.39 C 1189.14 1265.13 1190.57 1277.01 1184.83 1279.56 C 1177.4 1282.87 1170.21 1269.73 1174.77 1263.69 C 1180.97 1255.46 1190.86 1252.98 1200.53 1251.24 z"/>
<path transform="translate(0,0)" fill="white" d="M 1214.2 1288.25 L 1215.66 1289.51 C 1216.9 1304.98 1217.37 1325.05 1194.77 1319.76 C 1178.51 1303.92 1198.97 1291.53 1214.2 1288.25 z"/>
<path transform="translate(0,0)" fill="rgb(40,52,71)" d="M 1295.97 1250.18 L 1296.55 1250.41 C 1299.42 1253.92 1296.72 1254.11 1298.38 1259.64 C 1304.13 1259.42 1313.43 1250.99 1322.36 1250.3 C 1358.63 1247.52 1345.43 1294.28 1347.99 1316.23 C 1348.8 1323.11 1357.74 1322.86 1358.9 1328.88 L 1357.75 1330.25 C 1353.3 1330.98 1322.52 1331.71 1318.55 1329.67 C 1318.39 1326.17 1317.97 1327.7 1319.59 1324.84 C 1322.86 1323.95 1323.53 1323.99 1326.36 1322.07 C 1330.38 1313.09 1329.53 1274.18 1323.06 1265.45 C 1312.9 1259.79 1306.88 1263.74 1298.15 1269.42 C 1297.86 1282.84 1297.41 1305.57 1298.46 1319.57 C 1298.64 1322.05 1305.06 1323.58 1307.92 1326.85 C 1307.72 1329.46 1308.29 1328.43 1306.61 1330.18 C 1300.01 1331.49 1272.68 1331.93 1266.74 1328.65 L 1266.7 1326.83 C 1269.39 1323.9 1273.14 1323.48 1277.09 1322.47 C 1278.42 1313.18 1279.4 1273.26 1276.02 1265.6 C 1271.36 1261.11 1265.18 1263.64 1263.19 1258.84 C 1266.46 1255.65 1288.98 1252.04 1295.97 1250.18 z"/>
<path transform="translate(0,0)" fill="rgb(40,52,71)" d="M 745.2 1250.22 C 748.728 1251.94 744.932 1256.08 747.653 1259.53 C 754.879 1258.98 763.615 1249.75 774.115 1249.96 C 805.11 1250.56 796.395 1287.98 797.044 1308.66 C 797.691 1329.25 801.868 1318.86 809.877 1326.86 L 809.733 1328.68 C 806.794 1330.97 798.632 1331.26 794.886 1330.86 C 788.967 1330.24 771.569 1332.62 768.004 1328.88 C 769.001 1323.39 777.303 1322.01 777.439 1317.04 C 777.844 1302.29 780.361 1278.56 772.801 1265.86 C 763.015 1260.08 756.56 1263.74 747.595 1268.73 C 746.716 1275.84 746.311 1318.91 749.58 1323.13 C 752.309 1323.63 753.955 1323.58 755.789 1325.6 C 756.051 1328.83 756.527 1327.59 755.304 1330.04 C 750.415 1331.01 717.483 1331.58 714.338 1329.61 C 716.205 1325.44 727.198 1320.29 727.2 1317.08 C 727.21 1301.89 727.96 1286.58 727.179 1271.42 C 726.754 1263.15 718.517 1263.66 712.927 1259.31 L 713.101 1257.5 C 718.596 1255.42 737.674 1252.02 745.2 1250.22 z"/>
<path transform="translate(0,0)" fill="rgb(40,52,71)" d="M 542.503 1216.38 C 558.399 1215.27 566.78 1217.4 582.141 1221.79 C 582.812 1227.27 584.953 1246.32 582.135 1250.09 C 573.749 1250.04 572.894 1231.41 562.865 1227.55 C 488.919 1199.07 490.735 1346.95 564.72 1321.57 C 573.129 1315.07 573.072 1309.84 580.123 1303.1 C 582.642 1303.76 581.535 1303.07 583.595 1305.02 C 581.08 1313.43 580.181 1319.28 577.005 1327.95 C 541.178 1343.25 491.521 1331.05 486.376 1286.55 C 481.885 1247.71 503.315 1220.5 542.503 1216.38 z"/>
<path transform="translate(0,0)" fill="rgb(40,52,71)" d="M 975.748 1311.84 C 976.06 1300.98 976.937 1277.47 974.607 1266.92 C 973.815 1263.34 966.394 1262.2 962.411 1260.59 L 962.298 1258.95 C 966.1 1255.18 988.497 1251.07 995.099 1249.38 L 995.27 1307.25 C 995.176 1323.5 1003.23 1318.38 1007.29 1326.14 C 1005.64 1327.33 981.366 1331.9 976.582 1332.98 C 976.238 1328.94 976.271 1324.23 976.187 1320.11 C 932.408 1352.66 922.525 1327.11 925.844 1283.98 C 927.779 1258.84 919.032 1267.91 910.495 1259.31 L 911.048 1257.82 C 918.212 1255.34 934.832 1252.56 943.981 1250.19 C 951.34 1253.98 929.698 1353.03 975.748 1311.84 z"/>
<path transform="translate(0,0)" fill="rgb(40,52,71)" d="M 1536.72 1260.48 C 1532.49 1259.35 1528.94 1259.02 1526.34 1255.7 L 1526.93 1253.96 C 1532.79 1251.56 1551.49 1251.06 1557.16 1252.54 L 1558.04 1254.48 C 1556.6 1260.23 1550.3 1258.79 1546.68 1265.63 C 1541.02 1276.31 1536.3 1288.99 1531.55 1300.25 C 1523.83 1320.32 1515.86 1340.84 1505.52 1359.68 C 1499.8 1370.12 1478.45 1372.51 1478.45 1359.57 C 1484.32 1348.16 1497.19 1363.58 1509.45 1333.95 L 1509.88 1332.86 L 1491.57 1291.4 C 1487.18 1281.37 1482.44 1265.3 1472.69 1260.14 C 1466.91 1257.08 1467.45 1257.79 1466.76 1252.01 C 1476.32 1252.27 1502.31 1251.46 1509.77 1253.19 L 1510.18 1255.35 L 1508.72 1257.43 C 1505.71 1258.56 1502.82 1259.13 1501.07 1261.63 C 1502.08 1269.18 1515.42 1299.52 1519.12 1308.37 C 1524.5 1296.36 1533.66 1272.77 1536.72 1260.48 z"/>
<path transform="translate(0,0)" fill="rgb(40,52,71)" d="M 1039.14 1320.47 C 1039.19 1320.1 1039.25 1319.73 1039.29 1319.36 C 1040.66 1308.72 1041.33 1229.88 1036.82 1224.58 C 1034.09 1221.37 1027.33 1223.58 1026.05 1218.4 C 1028.09 1215.82 1053.01 1210.58 1059.9 1208.3 L 1059.91 1283.48 C 1059.93 1291.11 1058.49 1316.37 1062.65 1321.58 C 1066.56 1323.12 1072.25 1323.99 1074.22 1326.31 C 1074.02 1329.3 1074.59 1328.08 1072.6 1330.16 C 1063.47 1331.43 1042.39 1330.71 1032.41 1330.58 C 1029.51 1331.11 1029.46 1330.9 1026.51 1330.32 C 1026.3 1328.38 1026.31 1329.13 1027.01 1327.14 C 1031.71 1323.23 1033.5 1323.9 1038.37 1320.94 L 1039.14 1320.47 z"/>
<path transform="translate(0,0)" fill="rgb(32,38,54)" d="M 1039.14 1320.47 C 1039.89 1323.22 1040.16 1324.75 1040.63 1327.52 L 1039.41 1329.25 L 1037.9 1329.5 C 1035.98 1329.82 1034.3 1330.17 1032.41 1330.58 C 1029.51 1331.11 1029.46 1330.9 1026.51 1330.32 C 1026.3 1328.38 1026.31 1329.13 1027.01 1327.14 C 1031.71 1323.23 1033.5 1323.9 1038.37 1320.94 L 1039.14 1320.47 z"/>
<path transform="translate(0,0)" fill="rgb(40,52,71)" d="M 857.858 1250.26 C 867.196 1249.69 874.608 1250.93 883.762 1252.53 C 884.446 1259.94 887.512 1269.1 883.408 1275.5 L 881.582 1275.78 C 875.985 1272.77 871.625 1255.5 862.922 1256.79 C 838.967 1259.64 847.785 1278.44 866.608 1282.43 C 904.273 1290.42 900.119 1328.46 862.258 1333.68 C 853.162 1334.53 843.373 1332.76 834.318 1331.4 C 834.093 1324.92 830.778 1309.41 837.064 1306.44 C 839.231 1307.6 846.374 1317.81 849.247 1321.37 C 855.509 1329.13 869.453 1328.83 874.027 1319.71 C 880.864 1302.76 854.148 1299.57 845.045 1294.06 C 820.638 1279.29 834.385 1255.49 857.858 1250.26 z"/>
<path transform="translate(0,0)" fill="rgb(40,52,71)" d="M 1418.22 1250.29 C 1426.87 1249.59 1445.58 1250.94 1448.78 1261.43 C 1450.77 1267.98 1445.52 1272.67 1439.84 1273.61 C 1427.87 1275.59 1430.92 1262.98 1423.4 1258.43 C 1405.58 1253.69 1401.62 1277.52 1402.69 1288.17 C 1404.23 1303.65 1408.87 1315.19 1423.38 1319.54 C 1430.15 1321.57 1437.73 1317.84 1443.04 1314.46 C 1446.05 1311.48 1446.6 1310.43 1450.66 1310.8 L 1451.52 1312.24 C 1450.6 1321.3 1435.61 1331.38 1427.38 1332.87 C 1387.43 1340.13 1370.08 1293.94 1391.06 1264.76 C 1398.17 1254.88 1406.99 1251.96 1418.22 1250.29 z"/>
<path transform="translate(0,0)" fill="rgb(40,52,71)" d="M 1117.43 1227.65 L 1122.03 1228.06 C 1125.61 1232.55 1123.73 1245.4 1123.47 1251.98 C 1131.29 1251.82 1145.07 1250.19 1150.33 1256.98 C 1145.5 1263.76 1131.19 1262.24 1123.57 1262.1 C 1123.41 1275.04 1120.24 1308.57 1128.22 1319.15 C 1132.15 1324.35 1142.74 1316.03 1147.91 1320.79 C 1146.96 1324.42 1146.95 1323.49 1143.6 1326.5 C 1092.48 1356.91 1103.06 1291.72 1103.39 1262.21 C 1098.85 1262.2 1096.01 1262.87 1092.94 1260.11 C 1094.51 1255.48 1107.01 1249.13 1111.19 1242 C 1114.59 1236.19 1115.18 1233.97 1117.43 1227.65 z"/>
<path transform="translate(0,0)" fill="white" d="M 1303.65 1544.85 C 1316.63 1532.45 1329.28 1533.8 1327.4 1552.64 C 1325.77 1569.05 1309.73 1584.15 1293 1576.84 C 1291.59 1581.54 1288.32 1590.52 1289.37 1594.67 L 1294.77 1597.13 C 1293.02 1598.61 1277.94 1597.95 1274.58 1597.74 C 1274.33 1595.4 1280.18 1596.22 1281.09 1592.9 C 1283.42 1584.47 1296.5 1547.89 1294.56 1541.46 C 1292.7 1540.52 1291.33 1540 1289.32 1539.49 C 1292.56 1537.68 1299.98 1536.99 1303.71 1537.28 C 1303.43 1540 1303.19 1542.11 1303.65 1544.85 z"/>
<path transform="translate(0,0)" fill="rgb(13,37,74)" d="M 1293 1576.84 C 1291.59 1581.54 1288.32 1590.52 1289.37 1594.67 L 1294.77 1597.13 C 1293.02 1598.61 1277.94 1597.95 1274.58 1597.74 C 1274.33 1595.4 1280.18 1596.22 1281.09 1592.9 C 1283.42 1584.47 1296.5 1547.89 1294.56 1541.46 C 1292.7 1540.52 1291.33 1540 1289.32 1539.49 C 1292.56 1537.68 1299.98 1536.99 1303.71 1537.28 C 1303.43 1540 1303.19 1542.11 1303.65 1544.85 L 1305.14 1546.11 C 1298.43 1555.85 1297.23 1562.3 1293.88 1573.72 L 1293 1576.84 z"/>
<path transform="translate(0,0)" fill="rgb(13,37,74)" d="M 1303.65 1544.85 C 1316.63 1532.45 1329.28 1533.8 1327.4 1552.64 C 1325.77 1569.05 1309.73 1584.15 1293 1576.84 L 1293.88 1573.72 L 1294.26 1573.91 C 1315.53 1584.85 1328.38 1543.78 1313.45 1541.01 C 1309.07 1542.15 1308.64 1542.94 1305.14 1546.11 L 1303.65 1544.85 z"/>
<path transform="translate(0,0)" fill="rgb(13,37,74)" d="M 848.549 1539.62 C 851.836 1537.7 856.685 1520.89 854.722 1517.59 C 851.88 1517.04 852.292 1517.28 849.721 1516.14 C 851.519 1514.64 861.826 1513.12 864.904 1512.53 C 858.74 1533.58 852.16 1555.12 846.687 1576.32 C 849.503 1573.78 851.569 1571.62 854.921 1569.81 L 855.577 1570.16 L 852.851 1571.01 L 855.178 1571.41 C 852.18 1575.61 848.808 1578.46 843.539 1578.26 L 841.789 1576.32 C 840.417 1572.05 841.578 1568.75 842.436 1564.23 C 840.835 1566.29 839.21 1568.33 837.561 1570.34 C 816.673 1595.57 803.464 1555.03 836.377 1537.89 C 842.244 1536.29 843.709 1535.74 848.549 1539.62 z"/>
<path transform="translate(0,0)" fill="white" d="M 836.377 1537.89 C 842.244 1536.29 843.709 1535.74 848.549 1539.62 L 847.279 1540.77 C 849.788 1552.45 837.63 1578.31 824.352 1570.36 C 818.946 1561.28 831.288 1545.81 837.81 1539.39 L 836.377 1537.89 z"/>
<path transform="translate(0,0)" fill="rgb(40,52,71)" d="M 836.377 1537.89 C 842.244 1536.29 843.709 1535.74 848.549 1539.62 L 847.279 1540.77 C 842.871 1538.84 842.551 1538.77 837.81 1539.39 L 836.377 1537.89 z"/>
<path transform="translate(0,0)" fill="white" d="M 1576.25 1538.81 C 1581.44 1536.77 1583.61 1536.63 1589.07 1537.04 C 1592.49 1538.32 1596.48 1540.34 1597.71 1543.88 C 1610.49 1580.76 1541.68 1595.48 1563.3 1550.18 C 1565.45 1545.66 1571.85 1541.29 1576.25 1538.81 z"/>
<path transform="translate(0,0)" fill="rgb(13,37,74)" d="M 1589.07 1537.04 C 1592.49 1538.32 1596.48 1540.34 1597.71 1543.88 C 1610.49 1580.76 1541.68 1595.48 1563.3 1550.18 C 1565.45 1545.66 1571.85 1541.29 1576.25 1538.81 L 1577.98 1540.9 C 1572.62 1546.86 1562.3 1564.48 1567.88 1571.58 C 1581.06 1588.37 1598.03 1552.67 1588.38 1539.24 L 1589.07 1537.04 z"/>
<path transform="translate(0,0)" fill="rgb(40,52,71)" d="M 1576.25 1538.81 C 1581.44 1536.77 1583.61 1536.63 1589.07 1537.04 L 1588.38 1539.24 C 1582.95 1538.87 1582.88 1538.79 1577.98 1540.9 L 1576.25 1538.81 z"/>
<path transform="translate(0,0)" fill="white" d="M 1006.48 1540.74 C 1008.91 1538.35 1009.02 1537.79 1012.36 1537.03 L 1014.14 1537.76 C 1015.63 1544.33 1006.84 1567.37 1005 1577.26 C 1006.83 1575.6 1011.44 1570.74 1013.23 1570.66 C 1010.53 1574.53 1007.67 1577.89 1003.04 1579.41 C 997.008 1577.89 999.013 1571.85 999.87 1566.78 C 994.825 1572.81 989.052 1578.48 981.026 1579.78 C 962.077 1574.26 990.245 1521.07 1006.48 1540.74 z"/>
<path transform="translate(0,0)" fill="url(#Gradient4)" d="M 999.87 1566.78 C 994.825 1572.81 989.052 1578.48 981.026 1579.78 C 962.077 1574.26 990.245 1521.07 1006.48 1540.74 L 1005.34 1541.51 C 990.528 1531.54 976.464 1563.62 985.401 1573.06 C 991.934 1573.74 995.204 1569.42 999.13 1564.7 L 999.87 1566.78 z"/>
<path transform="translate(0,0)" fill="rgb(13,37,74)" d="M 1006.48 1540.74 C 1008.91 1538.35 1009.02 1537.79 1012.36 1537.03 L 1014.14 1537.76 C 1015.63 1544.33 1006.84 1567.37 1005 1577.26 C 1006.83 1575.6 1011.44 1570.74 1013.23 1570.66 C 1010.53 1574.53 1007.67 1577.89 1003.04 1579.41 C 997.008 1577.89 999.013 1571.85 999.87 1566.78 L 999.13 1564.7 C 1004.67 1553.54 1005.21 1554.04 1005.34 1541.51 L 1006.48 1540.74 z"/>
<path transform="translate(0,0)" fill="white" d="M 747.899 1566.98 C 744.475 1570.79 730.643 1584.45 724.913 1577.83 C 714.399 1565.7 740.469 1522.52 754.392 1540.87 C 757.909 1537.52 756.452 1538 760.683 1537.12 C 765.104 1541.13 754.46 1569.61 752.978 1577.18 L 760.261 1570.72 L 761.208 1570.81 C 758.395 1574.64 755.36 1578.23 750.534 1579.31 C 745.281 1577.09 747.011 1571.82 747.899 1566.98 z"/>
<path transform="translate(0,0)" fill="rgb(13,37,74)" d="M 747.899 1566.98 C 744.475 1570.79 730.643 1584.45 724.913 1577.83 C 714.399 1565.7 740.469 1522.52 754.392 1540.87 L 753.32 1541.51 C 738.224 1531.31 724.365 1564.52 733.548 1573.13 C 738.721 1574.13 742.489 1570.1 745.728 1566.5 L 747.899 1566.98 z"/>
<path transform="translate(0,0)" fill="rgb(13,37,74)" d="M 754.392 1540.87 C 757.909 1537.52 756.452 1538 760.683 1537.12 C 765.104 1541.13 754.46 1569.61 752.978 1577.18 L 760.261 1570.72 L 761.208 1570.81 C 758.395 1574.64 755.36 1578.23 750.534 1579.31 C 745.281 1577.09 747.011 1571.82 747.899 1566.98 L 745.728 1566.5 C 752.371 1556.7 753.16 1552.78 753.32 1541.51 L 754.392 1540.87 z"/>
<path transform="translate(0,0)" fill="white" d="M 274.147 1516.66 L 275.05 1514.79 L 275.413 1516.69 C 278.917 1517.74 280.64 1517.89 283.137 1520.55 C 284.245 1524.9 283.595 1525.81 281.045 1529.75 L 282.415 1533.01 C 276.116 1542.51 269.866 1552.03 263.664 1561.59 C 259.315 1568.69 255.337 1574.67 250.582 1581.51 C 251.85 1565.54 256.171 1538.17 255.912 1521.54 C 255.864 1518.45 251.469 1518.89 250.41 1516.43 C 255.742 1514.99 268.505 1515.8 274.147 1516.66 z"/>
<path transform="translate(0,0)" fill="rgb(13,37,74)" d="M 250.582 1581.51 C 251.85 1565.54 256.171 1538.17 255.912 1521.54 C 255.864 1518.45 251.469 1518.89 250.41 1516.43 C 255.742 1514.99 268.505 1515.8 274.147 1516.66 C 271.013 1517.47 267.523 1517.64 266.18 1520.65 C 261.804 1530.48 261.709 1549.18 260.871 1560.14 L 263.664 1561.59 C 259.315 1568.69 255.337 1574.67 250.582 1581.51 z"/>
<path transform="translate(0,0)" fill="rgb(32,38,54)" d="M 281.045 1529.75 L 282.415 1533.01 C 276.116 1542.51 269.866 1552.03 263.664 1561.59 L 260.871 1560.14 C 266.369 1553.3 275.884 1537.73 281.045 1529.75 z"/>
<path transform="translate(0,0)" fill="rgb(13,37,74)" d="M 1503.15 1514.46 C 1506.37 1514.73 1520.42 1516.33 1522.14 1517.56 C 1523.29 1521.27 1518.94 1533.87 1517.66 1538.55 C 1517.69 1531.94 1517.66 1521.57 1510.78 1519.07 C 1495.03 1513.34 1480.9 1524.29 1475.59 1538.32 C 1470.85 1550.83 1470.05 1570.4 1484.72 1574.98 C 1503.53 1580.85 1504.53 1563.27 1506.53 1550.09 C 1503.69 1549.39 1502.45 1549.14 1499.71 1548.03 L 1500.29 1547.09 C 1504.26 1546.58 1520.27 1546.13 1523.33 1547.83 C 1512.41 1551.71 1511.63 1564.84 1508.36 1575.38 C 1450.46 1597.85 1446.81 1518.55 1503.15 1514.46 z"/>
<path transform="translate(0,0)" fill="rgb(13,37,74)" d="M 1105.26 1524.75 C 1105.93 1527.84 1104.27 1532.86 1103.45 1536.22 C 1106.18 1540.72 1118.38 1535.62 1123.47 1538.28 C 1126.94 1545.58 1127.67 1565.09 1128.35 1573.9 C 1133.4 1566.96 1139.6 1558.95 1143.82 1551.58 C 1148 1544.29 1142.91 1547.75 1140.48 1540.59 C 1141.89 1537.46 1140.84 1538.71 1143.92 1536.86 C 1147.27 1537.22 1145.82 1536.6 1148.39 1538.83 C 1152.75 1551.97 1122.65 1583.15 1113.94 1592.39 C 1110.53 1596.01 1107.36 1598.83 1102.32 1597.55 L 1101.25 1595.45 C 1102.04 1591.36 1101.56 1592.79 1105.12 1589.43 C 1108.52 1592.5 1106.69 1591.96 1110.42 1592.11 C 1115.33 1589.84 1118.57 1585.25 1122.25 1581.05 C 1121.14 1568.22 1120.39 1554.6 1118.09 1542.02 C 1113.03 1540.98 1107.45 1539.5 1102.59 1541.16 C 1100.31 1545.58 1092.88 1569.62 1093.48 1573.98 C 1096.77 1574.04 1099.44 1571.06 1102.59 1568.65 C 1102 1573.79 1094.12 1579.82 1088.28 1578.27 C 1082.33 1570.39 1093.59 1552.57 1094.06 1543.14 C 1094.26 1539.21 1092.53 1542.33 1088.88 1539.72 C 1096.6 1533.31 1097.74 1534.24 1104.18 1526.13 L 1105.26 1524.75 z"/>
<path transform="translate(0,0)" fill="rgb(13,37,74)" d="M 340.711 1513.37 L 341.752 1513.25 L 342.633 1514.33 C 341.453 1522.56 333.573 1547.65 330.882 1557.13 C 336.102 1549.65 343.511 1538.48 352.498 1535.62 C 362.196 1539.12 351.19 1568.51 348.909 1576.55 C 351.722 1573.85 354.112 1571.8 357.119 1569.31 C 355.796 1573.35 349.242 1579.27 344.584 1579.31 L 343.31 1577.95 C 342.73 1574.08 342.966 1573.56 343.66 1569.61 C 345.435 1563.64 351.415 1547.41 349.153 1542.44 L 347.155 1542.19 C 332.611 1550.24 331.174 1565.92 323.297 1577.85 L 319.554 1577.88 C 317.405 1571.37 333.392 1530.76 333.951 1520.33 C 331.782 1516.86 332.572 1517.97 328.302 1515.95 C 330.421 1514.63 337.754 1513.84 340.711 1513.37 z"/>
<path transform="translate(0,0)" fill="rgb(13,37,74)" d="M 922.35 1515.22 C 932.358 1514.32 934.231 1515.57 944.081 1516.79 C 945.921 1517.02 944.696 1514.96 949.547 1515.24 C 949.163 1520.82 946.162 1531.16 944.653 1537.01 C 937.35 1476.96 866.468 1566.51 918.084 1575.41 C 929.138 1574.9 929.889 1571.4 939.93 1566.13 L 939.661 1567.23 C 896.777 1609.8 864.165 1535.02 922.35 1515.22 z"/>
<path transform="translate(0,0)" fill="rgb(13,37,74)" d="M 449.318 1560.63 C 448.636 1564.55 448.847 1567.38 451.356 1570.64 C 459.305 1580.95 469.655 1567.85 474.228 1568.27 C 464.28 1581.15 444.848 1585.26 441.474 1565.77 C 438.693 1549.7 463.604 1527.86 476.566 1540.62 C 480.091 1550.68 469.794 1554.84 462.304 1558.3 C 457.985 1559.13 453.656 1559.91 449.318 1560.63 z"/>
<path transform="translate(0,0)" fill="white" d="M 449.337 1558.73 C 450.136 1556.5 450.997 1554.3 451.918 1552.13 C 454.812 1545.48 461.619 1537.28 469.599 1540.84 C 474.186 1549.07 464.472 1553.8 458.34 1556.7 L 462.304 1558.3 C 457.985 1559.13 453.656 1559.91 449.318 1560.63 L 449.337 1558.73 z"/>
<path transform="translate(0,0)" fill="rgb(40,52,71)" d="M 458.34 1556.7 L 462.304 1558.3 C 457.985 1559.13 453.656 1559.91 449.318 1560.63 L 449.337 1558.73 L 458.34 1556.7 z"/>
<path transform="translate(0,0)" fill="url(#Gradient3)" d="M 379.085 1559.58 C 376.001 1560.06 375.82 1559.82 373.355 1561.6 C 371.502 1579.7 385.169 1573.35 396.533 1569.58 L 396.832 1570.17 C 389.744 1576.51 381.077 1581.99 371.282 1576.72 C 359.391 1570.33 365.971 1556.63 371.739 1548.29 C 377.69 1539.69 385.117 1537.77 394.831 1536.01 C 415.498 1544.64 390.679 1557.85 379.085 1559.58 z"/>
<path transform="translate(0,0)" fill="white" d="M 394.831 1536.01 C 415.498 1544.64 390.679 1557.85 379.085 1559.58 L 377.191 1558 L 375.07 1557.71 L 374.405 1555.85 C 376.998 1546.41 384.208 1539.53 394.011 1538.41 L 394.831 1536.01 z"/>
<path transform="translate(0,0)" fill="rgb(13,37,74)" d="M 394.831 1536.01 C 415.498 1544.64 390.679 1557.85 379.085 1559.58 L 377.191 1558 C 386.792 1555.41 399.022 1550.55 394.011 1538.41 L 394.831 1536.01 z"/>
<path transform="translate(0,0)" fill="rgb(13,37,74)" d="M 1407.11 1559.69 C 1404.42 1560.01 1404.56 1559.92 1402.18 1561.19 C 1399.95 1565.22 1400.61 1567.85 1403.63 1571.27 C 1409.91 1578.38 1418.79 1569.72 1425.56 1569.55 C 1400.77 1593.34 1380.72 1567.14 1402.41 1544.74 C 1408.72 1538.22 1416.45 1536.63 1425.35 1536.84 C 1440.24 1548.55 1417.09 1558.24 1407.11 1559.69 z"/>
<path transform="translate(0,0)" fill="white" d="M 1425.35 1536.84 C 1440.24 1548.55 1417.09 1558.24 1407.11 1559.69 L 1405.16 1558.05 C 1403.82 1557.88 1404.68 1558.06 1402.64 1557.21 C 1402.5 1547.63 1412.95 1538.63 1422.93 1538.96 L 1425.35 1536.84 z"/>
<path transform="translate(0,0)" fill="rgb(13,37,74)" d="M 1425.35 1536.84 C 1440.24 1548.55 1417.09 1558.24 1407.11 1559.69 L 1405.16 1558.05 C 1414.92 1555.44 1425.77 1550.97 1422.93 1538.96 L 1425.35 1536.84 z"/>
<path transform="translate(0,0)" fill="rgb(13,37,74)" d="M 515.563 1515.93 L 563.022 1515.93 C 560.962 1522.5 558.829 1529.05 556.624 1535.58 C 556.769 1530.31 558.073 1525.16 554.339 1521.03 C 550.263 1519.01 546.757 1519.42 542.134 1519.33 C 539.149 1529.45 526.712 1567.09 528.354 1575.44 C 530.292 1575.77 531.915 1576.12 533.839 1576.53 L 533.786 1577.32 C 527.145 1578.53 516.926 1578.32 510.221 1577.46 L 509.879 1576.63 C 510.663 1576.45 514.734 1575.54 514.899 1575.38 C 521.735 1568.73 531.71 1528.46 533.585 1520.05 L 533.866 1518.75 C 518.628 1520.62 517.29 1522 510.983 1535.53 L 515.563 1515.93 z"/>
<path transform="translate(0,0)" fill="rgb(13,37,74)" d="M 598.606 1536.56 C 601.242 1536.61 600.699 1536.64 603.32 1537.36 C 609.086 1544.98 598.215 1559.39 597.405 1570.5 C 598.918 1573.52 597.778 1572.48 600.968 1573.7 C 611.031 1570.81 619.925 1546.68 623.91 1538.37 C 624.579 1536.98 624.966 1537.32 626.879 1536.95 C 633.751 1542.75 618.142 1567.26 621.276 1573.41 C 625.034 1572.47 624.144 1572.42 627.377 1569.36 L 627.958 1569.26 L 628.403 1570.05 C 625.76 1574.21 622.404 1578 617.435 1579.07 C 610.343 1577.24 615.647 1563.8 617.009 1558.36 C 611.662 1566.45 604.843 1578.15 594.359 1579 C 584.008 1573.81 599.663 1548.96 596.728 1542.37 C 593.503 1542.66 593.249 1543.75 590.186 1546.18 L 589.93 1545.6 C 592.453 1541.1 594.63 1539.81 598.606 1536.56 z"/>
<path transform="translate(0,0)" fill="rgb(13,37,74)" d="M 1640.92 1534.75 C 1642.64 1546.97 1643.41 1559.1 1644.34 1571.4 L 1651.21 1562.71 L 1652.37 1564.22 C 1647.63 1570.55 1644.5 1574.59 1639.13 1580.32 C 1637.63 1571.33 1636.6 1556.97 1635.55 1547.53 C 1628.88 1558.91 1622.08 1570.22 1615.16 1581.45 C 1614.73 1571.66 1614.82 1553.85 1611.43 1544.47 C 1610.25 1541.2 1607.67 1541.32 1604.35 1540.46 C 1606.92 1538.23 1613.5 1537.16 1617.14 1536.29 C 1619.58 1547.09 1620.09 1556.74 1620.92 1567.71 C 1627.52 1556.68 1634.19 1545.7 1640.92 1534.75 z"/>
<path transform="translate(0,0)" fill="rgb(13,37,74)" d="M 275.413 1516.69 C 281.746 1515.44 294.265 1515.67 300.864 1516.35 C 299.388 1517.55 295.35 1518.46 295.375 1518.42 C 290.082 1527.15 289.361 1549.07 288.682 1558.73 L 288.998 1560.3 L 291.79 1561.17 C 287.565 1568.23 283.278 1574.57 278.666 1581.39 C 278.845 1570.85 283.954 1540.28 282.415 1533.01 L 281.045 1529.75 C 283.595 1525.81 284.245 1524.9 283.137 1520.55 C 280.64 1517.89 278.917 1517.74 275.413 1516.69 z"/>
<path transform="translate(0,0)" fill="rgb(13,37,74)" d="M 970.609 1513.36 L 971.819 1513.15 C 977.077 1516.23 954.888 1564.01 959.123 1572.33 C 962.703 1572.25 961.921 1572.01 965.466 1569.81 C 964.05 1572.29 962.173 1574.12 960.252 1576.24 C 957.662 1577.98 957.672 1577.88 954.646 1578.79 C 951.493 1577.98 952.753 1578.84 950.891 1575.93 C 949.506 1562.09 967.798 1525.17 962.861 1517.16 C 960.305 1516.8 961.085 1517.25 959.152 1515.92 C 960.61 1514.53 967.952 1513.8 970.609 1513.36 z"/>
<path transform="translate(0,0)" fill="rgb(13,37,74)" d="M 1711.37 1554.26 C 1706.86 1560.97 1702.45 1577.62 1695.64 1577.95 C 1693.39 1572.23 1708.89 1530.93 1710.12 1520.83 C 1708.31 1517.32 1708.97 1518.45 1705.18 1516.09 C 1707.26 1514.37 1716.29 1513.17 1719.63 1512.54 C 1717.8 1518.43 1708.34 1550.2 1708.4 1554.08 L 1709.72 1553.11 L 1711.37 1554.26 z"/>
<path transform="translate(0,0)" fill="rgb(13,37,74)" d="M 1689.15 1524.73 C 1690.04 1528.35 1688.48 1532.15 1687.49 1536.09 L 1688.39 1537.46 L 1692.98 1537.7 L 1693.66 1539.03 L 1692.58 1540.19 C 1691.43 1540.24 1687.41 1540.3 1686.86 1541.12 C 1684.04 1545.32 1676.03 1570.74 1678.37 1574.2 C 1681.47 1573.74 1683.67 1570.94 1686.11 1568.63 L 1686.46 1569.49 L 1684.33 1573.24 C 1680.05 1576.98 1678.46 1579.47 1672.7 1578.46 C 1664.8 1570.13 1680.18 1550.48 1677.5 1541.16 C 1674.63 1540.69 1675.34 1541.05 1672.85 1539.81 C 1680.8 1532.9 1681.42 1534.72 1688.11 1526.1 L 1689.15 1524.73 z"/>
<path transform="translate(0,0)" fill="rgb(13,37,74)" d="M 1370.23 1558.48 C 1375.31 1550.62 1383.02 1538.8 1392.42 1536.13 L 1393.65 1537.16 C 1393.45 1541 1393.22 1544.88 1390.04 1547.31 C 1387.15 1545.78 1387.01 1545.45 1383.67 1545.26 C 1380.11 1546.41 1378.11 1549.96 1375.75 1553.08 C 1368.68 1563.36 1369.19 1565.49 1365.25 1576.23 C 1361.81 1578.42 1363.62 1577.94 1359.69 1577.9 C 1356.06 1573.17 1369.34 1550.07 1367.41 1543.01 C 1366.99 1541.44 1363.47 1540.45 1361.53 1539.59 C 1364.59 1538.17 1367.77 1537.92 1371.16 1537.36 L 1374.54 1537.16 L 1375.52 1538.57 C 1375.18 1544.42 1372.07 1552.5 1370.23 1558.48 z"/>
<path transform="translate(0,0)" fill="rgb(13,37,74)" d="M 693.248 1524.74 C 694.103 1527.67 692.279 1532.42 691.402 1535.61 C 692.905 1539.52 695.495 1535.82 697.824 1539.06 C 695.929 1541.04 695.298 1540.4 691.69 1540.74 C 688.011 1543.77 680.166 1571.21 681.896 1574.14 C 684.935 1573.69 687.653 1570.96 690.167 1568.95 L 690.573 1569.4 L 688.309 1573.31 C 683.808 1577.18 682.553 1579.04 676.945 1578.62 C 668.597 1570.9 683.867 1550.42 681.807 1540.86 C 678.28 1540.68 679.377 1541.34 676.85 1539.8 C 684.398 1533.18 685.382 1534.82 692.218 1526.07 L 693.248 1524.74 z"/>
<path transform="translate(0,0)" fill="rgb(13,37,74)" d="M 568.999 1552.37 C 571.469 1546.84 579.528 1535.45 586.379 1537.13 C 588.13 1539.73 588.808 1543.41 587.101 1546.21 C 583.409 1547.32 581.672 1546.05 577.677 1544.19 C 574.075 1546.75 572.45 1549.4 569.81 1552.91 C 565.359 1559.69 560.202 1576.99 554.885 1579 L 553.648 1578.25 C 551.406 1570.25 560.871 1555.32 561.547 1542.7 C 559.446 1540.12 559.334 1540.8 555.388 1539.67 C 559.125 1538.19 566.509 1537.19 570.736 1536.46 C 569.511 1540.43 565.709 1550.97 566.563 1554.23 L 568.999 1552.37 z"/>
<path transform="translate(0,0)" fill="url(#Gradient2)" d="M 782.951 1554.07 C 787.903 1547.25 795.414 1534.12 805.323 1537.61 C 811.176 1547.41 798.581 1566.22 802.201 1573.26 C 804.816 1571.81 804.902 1571.55 807.072 1569.41 C 804.3 1574.29 801.839 1577.28 796.613 1579.4 L 794.59 1579.17 C 789.515 1571.85 802.447 1550.88 798.815 1543.12 C 792.458 1541.78 787.577 1550.78 784.405 1555.35 L 782.951 1554.07 z"/>
<path transform="translate(0,0)" fill="url(#Gradient1)" d="M 1709.72 1553.11 C 1714.28 1546.87 1722.37 1533.39 1731.52 1537.98 C 1736.02 1545.92 1727.2 1566.96 1724.98 1576.4 L 1732.9 1569.26 L 1733.34 1569.56 C 1730.27 1574.07 1727.94 1577.62 1722.73 1579.65 L 1720.51 1579.12 C 1715.5 1570.14 1728.72 1551.13 1724.85 1542.67 C 1719.25 1542 1714.15 1550.2 1711.37 1554.26 L 1709.72 1553.11 z"/>
<path transform="translate(0,0)" fill="rgb(13,37,74)" d="M 653.076 1576.1 C 654.042 1573.86 656.049 1569.88 654.667 1567.51 C 650.156 1559.78 641.565 1551.09 643.158 1541.42 C 643.549 1539.45 643.871 1539.66 645.427 1538.04 C 656.326 1533.87 658.314 1541.11 666.508 1536.9 L 667.449 1537.62 C 667.104 1542.76 666.672 1544.13 665.316 1549.2 L 664.218 1548.88 C 662.242 1544.95 661.311 1542.13 657.825 1539.5 C 654.424 1538.76 654.575 1538.93 651.125 1539.73 C 643.361 1548.39 674.693 1565.54 654.544 1577.54 L 653.076 1576.1 z"/>
<path transform="translate(0,0)" fill="rgb(13,37,74)" d="M 1217.77 1553.15 C 1222.67 1546.26 1229.45 1534.29 1239.29 1537.77 C 1246.07 1546.94 1232.78 1566.06 1234.47 1573.61 C 1237.55 1573.37 1239.04 1571.08 1241.73 1568.52 L 1242.46 1569.72 C 1238.71 1574.3 1236 1577.15 1230.33 1579.09 L 1228.37 1578.53 C 1224.09 1570.66 1236.59 1549.82 1232.72 1542.94 C 1226.63 1542.45 1222.49 1549.48 1219.06 1553.97 L 1217.77 1553.15 z"/>
<path transform="translate(0,0)" fill="rgb(13,37,74)" d="M 1267.06 1576.05 C 1273.13 1562.29 1254.18 1555.69 1257.62 1542.29 C 1260.1 1532.66 1275.21 1540.28 1280.54 1536.73 L 1281.37 1537.56 C 1281.25 1540.99 1280.65 1547.82 1278.37 1550.35 L 1277.87 1548.9 C 1275.14 1541.25 1274.51 1538.28 1265.82 1539.51 L 1263.77 1540.92 C 1262.48 1552.22 1286.98 1566.72 1268.54 1577.53 L 1267.06 1576.05 z"/>
<path transform="translate(0,0)" fill="rgb(13,37,74)" d="M 1190.4 1537.37 C 1192.13 1537.01 1192.06 1537.25 1193.96 1537.57 C 1195.08 1542.31 1186.33 1569.76 1184.57 1576.95 C 1188.26 1573.58 1189.72 1572.22 1193.84 1569.5 C 1192.75 1572.48 1190.71 1573.92 1188.34 1576.37 C 1185.67 1578.54 1183.67 1579.27 1180.39 1578.53 C 1174.53 1569.31 1188.9 1548.54 1185.49 1541.09 L 1180.45 1539.91 C 1182.7 1538.06 1187.06 1537.92 1190.4 1537.37 z"/>
<path transform="translate(0,0)" fill="rgb(13,37,74)" d="M 1346.29 1537.38 C 1349.48 1536.9 1348.19 1536.48 1350.57 1537.71 C 1351.12 1544.42 1340.54 1567.31 1342.55 1573.65 C 1345.47 1573.33 1347.75 1570.78 1350.42 1568.67 C 1350.09 1570.99 1346.31 1574.25 1344.33 1576.36 C 1342.36 1577.9 1341.18 1578.15 1338.83 1579.04 C 1335.65 1578.39 1336.86 1579.2 1335.07 1576.53 C 1333.65 1565.35 1345.23 1546.51 1340.82 1540.47 C 1338.63 1540.38 1338.53 1540.36 1336.42 1539.78 C 1338.84 1538.05 1343.14 1537.83 1346.29 1537.38 z"/>
<path transform="translate(0,0)" fill="rgb(13,37,74)" d="M 1072.17 1537.37 L 1076.02 1537.14 L 1076.76 1538.15 C 1074.97 1548.92 1069.34 1565.14 1066.57 1577.08 C 1070.28 1573.62 1071.67 1572.26 1075.84 1569.5 C 1074.72 1572.5 1072.78 1573.88 1070.4 1576.37 C 1067.03 1578.57 1065.59 1580.06 1061.81 1577.98 C 1056.83 1568.37 1072.37 1546.14 1066.68 1540.58 C 1063.84 1540.57 1064.82 1540.93 1062.5 1539.7 C 1064.88 1538 1068.97 1537.85 1072.17 1537.37 z"/>
<path transform="translate(0,0)" fill="rgb(13,37,74)" d="M 1220.86 1536.21 C 1219.56 1540.49 1216.12 1550.29 1216.51 1554.15 L 1217.77 1553.15 L 1219.06 1553.97 C 1214.95 1560.48 1210.45 1578.22 1203.28 1577.83 C 1202.03 1571.38 1210.38 1553.07 1211.26 1543.48 C 1208.5 1536.85 1209.6 1543.95 1205.8 1539.6 C 1207.99 1538.7 1217.86 1536.83 1220.86 1536.21 z"/>
<path transform="translate(0,0)" fill="rgb(13,37,74)" d="M 784.405 1555.35 C 779.534 1562.8 777.099 1573.98 770.613 1579.18 C 766.36 1571.74 776.535 1554.51 777.122 1543.99 C 775.357 1540.79 775.87 1541.77 772.025 1539.78 C 775.033 1538.25 783.098 1537.11 786.799 1536.44 C 784.929 1542.38 783.482 1546.93 782.202 1553.04 L 782.951 1554.07 L 784.405 1555.35 z"/>
<path transform="translate(0,0)" fill="rgb(13,37,74)" d="M 1541.84 1552.9 C 1537.07 1560.24 1532.53 1576.33 1526.12 1578.12 L 1524.84 1577.12 C 1525.01 1568.68 1534.24 1551.38 1533.32 1541.99 C 1531.64 1540.62 1531.33 1540.59 1529.28 1540.05 L 1527.41 1539.58 C 1531.66 1538.05 1538.2 1537.16 1542.81 1536.36 C 1541.51 1540.47 1537.67 1550.86 1538.56 1554.22 L 1540.99 1552.38 L 1541.84 1552.9 z"/>
<path transform="translate(0,0)" fill="rgb(13,37,74)" d="M 423.852 1552.9 C 419.295 1559.84 414.247 1576.94 408.879 1578.99 L 407.632 1578.25 C 405.619 1571.02 414.384 1555.13 415.607 1543.07 C 414.039 1540.19 413.767 1540.98 409.385 1539.64 C 414.328 1537.78 419.555 1537.29 424.815 1536.5 C 423.565 1540.47 419.71 1550.95 420.545 1554.23 L 423.003 1552.41 L 423.852 1552.9 z"/>
<path transform="translate(0,0)" fill="rgb(13,37,74)" d="M 1036.05 1558.04 C 1033.25 1564.05 1030.52 1574.11 1027.7 1577.9 C 1025.17 1578.98 1026.37 1579.06 1024 1578.11 C 1019.76 1572.3 1032.42 1553.99 1031.26 1542.55 C 1029.29 1539.82 1029.75 1540.67 1025.47 1539.63 C 1028.76 1537.81 1036.92 1537.03 1041.02 1536.42 C 1038.99 1542.37 1037.28 1548.61 1035.52 1554.66 C 1034.99 1557.12 1034.78 1556 1036.05 1558.04 z"/>
<path transform="translate(0,0)" fill="rgb(13,37,74)" d="M 288.682 1558.73 C 292.84 1556.76 312.364 1526.32 311.999 1520.21 C 310.756 1519.06 309.595 1517.89 308.506 1516.59 C 313.107 1515.31 322.786 1515.74 327.962 1515.76 C 311.419 1524.08 303.262 1545.11 291.79 1561.17 L 288.998 1560.3 L 288.682 1558.73 z"/>
<path transform="translate(0,0)" fill="rgb(13,37,74)" d="M 1540.99 1552.38 C 1543.49 1546.84 1551.46 1535.43 1558.36 1537.17 C 1560.42 1540.08 1560.69 1542.85 1559.11 1546.18 C 1555.43 1547.3 1553.67 1546.05 1549.68 1544.21 C 1546.09 1546.76 1544.47 1549.41 1541.84 1552.9 L 1540.99 1552.38 z"/>
<path transform="translate(0,0)" fill="rgb(13,37,74)" d="M 423.003 1552.41 C 425.446 1546.88 433.525 1535.4 440.37 1537.14 C 442.596 1539.6 442.486 1543.26 441.117 1546.12 C 437.376 1547.26 435.625 1546.08 431.678 1544.17 C 428.105 1546.77 426.486 1549.4 423.852 1552.9 L 423.003 1552.41 z"/>
<path transform="translate(0,0)" fill="rgb(13,37,74)" d="M 1651.21 1562.71 C 1653.66 1559.1 1660.12 1550.61 1659.79 1546.51 C 1659.58 1543.78 1656.25 1543.79 1656.05 1539.06 C 1658.78 1536.29 1657.1 1537.28 1661.72 1536.85 C 1669.37 1541.56 1656.08 1559.19 1652.37 1564.22 L 1651.21 1562.71 z"/>
<path transform="translate(0,0)" fill="rgb(40,52,71)" d="M 636.485 1559.73 C 638.762 1571.49 638.607 1578.78 653.076 1576.1 L 654.544 1577.54 C 647.69 1580.14 641.681 1578.16 634.339 1576.98 C 632.946 1575.01 635.821 1563.65 636.485 1559.73 z"/>
<path transform="translate(0,0)" fill="rgb(40,52,71)" d="M 1250.3 1560.86 C 1253.04 1572.16 1253.28 1578.71 1267.06 1576.05 L 1268.54 1577.53 C 1263.81 1579.33 1250.87 1578.77 1247.35 1576.21 C 1248.65 1570.97 1249.42 1566.17 1250.3 1560.86 z"/>
<path transform="translate(0,0)" fill="rgb(13,37,74)" d="M 1045.31 1542.98 C 1048.17 1540.27 1049.83 1538.06 1053.6 1537.22 L 1056.03 1537.87 C 1058.4 1542.09 1058.11 1545.48 1053.43 1547.56 C 1051.31 1546.18 1049.91 1544.44 1047.71 1543.8 L 1045.31 1542.98 z"/>
<path transform="translate(0,0)" fill="rgb(13,37,74)" d="M 1194.5 1518.61 C 1196.67 1518.32 1198.71 1519.72 1199.22 1521.85 C 1199.73 1523.98 1198.55 1526.16 1196.48 1526.88 C 1194.94 1527.41 1193.23 1527.03 1192.07 1525.89 C 1190.91 1524.74 1190.51 1523.04 1191.02 1521.5 C 1191.53 1519.95 1192.88 1518.83 1194.5 1518.61 z"/>
<path transform="translate(0,0)" fill="rgb(13,37,74)" d="M 1076.49 1518.58 C 1078.66 1518.28 1080.71 1519.68 1081.22 1521.82 C 1081.73 1523.95 1080.54 1526.13 1078.46 1526.84 C 1076.93 1527.37 1075.22 1526.98 1074.07 1525.84 C 1072.91 1524.7 1072.51 1523 1073.02 1521.46 C 1073.53 1519.92 1074.88 1518.81 1076.49 1518.58 z"/>
<path transform="translate(0,0)" fill="rgb(13,37,74)" d="M 1348.35 1519.53 C 1349.55 1518.56 1351.17 1518.31 1352.6 1518.88 C 1354.03 1519.45 1355.04 1520.74 1355.25 1522.27 C 1355.45 1523.8 1354.81 1525.31 1353.58 1526.24 C 1351.72 1527.62 1349.1 1527.27 1347.67 1525.44 C 1346.25 1523.61 1346.55 1520.98 1348.35 1519.53 z"/>
<path transform="translate(0,0)" fill="rgb(32,38,54)" d="M 1035.52 1554.66 C 1037.97 1553.25 1043.06 1545.82 1045.31 1542.98 L 1047.71 1543.8 C 1043.67 1547.86 1037.85 1556.42 1036.05 1558.04 C 1034.78 1556 1034.99 1557.12 1035.52 1554.66 z"/>
</svg>